<svg width="20" height="20" viewBox="0 0 20 20" fill="none" xmlns="http://www.w3.org/2000/svg">
<circle cx="10" cy="10" r="10" fill="#EB4E24"/>
<path d="M9.98634 4.42808C9.73896 4.43181 9.50315 4.5365 9.3307 4.71913C9.15826 4.90176 9.06329 5.1474 9.06668 5.40207V9.24549H5.33335C5.20967 9.24369 5.08688 9.26722 4.9721 9.3147C4.85733 9.36217 4.75287 9.43266 4.6648 9.52207C4.57672 9.61147 4.50678 9.718 4.45904 9.83547C4.4113 9.95294 4.38672 10.079 4.38672 10.2063C4.38672 10.3337 4.4113 10.4598 4.45904 10.5772C4.50678 10.6947 4.57672 10.8012 4.6648 10.8906C4.75287 10.98 4.85733 11.0505 4.9721 11.098C5.08688 11.1455 5.20967 11.169 5.33335 11.1672H9.06668V15.0106C9.06493 15.1379 9.08778 15.2644 9.1339 15.3825C9.18002 15.5007 9.24849 15.6082 9.33533 15.6989C9.42217 15.7896 9.52565 15.8616 9.63976 15.9107C9.75387 15.9599 9.87632 15.9852 10 15.9852C10.1237 15.9852 10.2462 15.9599 10.3603 15.9107C10.4744 15.8616 10.5779 15.7896 10.6647 15.6989C10.7515 15.6082 10.82 15.5007 10.8661 15.3825C10.9122 15.2644 10.9351 15.1379 10.9333 15.0106V11.1672H14.6667C14.7904 11.169 14.9131 11.1455 15.0279 11.098C15.1427 11.0505 15.2471 10.98 15.3352 10.8906C15.4233 10.8012 15.4932 10.6947 15.541 10.5772C15.5887 10.4598 15.6133 10.3337 15.6133 10.2063C15.6133 10.079 15.5887 9.95294 15.541 9.83547C15.4932 9.718 15.4233 9.61147 15.3352 9.52207C15.2471 9.43266 15.1427 9.36217 15.0279 9.3147C14.9131 9.26722 14.7904 9.24369 14.6667 9.24549H10.9333V5.40207C10.9351 5.2736 10.9117 5.14608 10.8647 5.02706C10.8177 4.90803 10.748 4.79992 10.6597 4.70911C10.5714 4.6183 10.4663 4.54664 10.3507 4.49837C10.235 4.4501 10.1111 4.4262 9.98634 4.42808Z" fill="#F9E8D8"/>
</svg>
