<svg width="80" height="80" viewBox="0 0 80 80" fill="none" xmlns="http://www.w3.org/2000/svg">
<path d="M40 0L45.0059 8.39397L52.3607 1.95774L54.5277 11.4878L63.5114 7.63932L62.6274 17.3726L72.3607 16.4886L68.5122 25.4723L78.0423 27.6393L71.606 34.9941L80 40L71.606 45.0059L78.0423 52.3607L68.5122 54.5277L72.3607 63.5114L62.6274 62.6274L63.5114 72.3607L54.5277 68.5122L52.3607 78.0423L45.0059 71.606L40 80L34.9941 71.606L27.6393 78.0423L25.4723 68.5122L16.4886 72.3607L17.3726 62.6274L7.63932 63.5114L11.4878 54.5277L1.95774 52.3607L8.39397 45.0059L0 40L8.39397 34.9941L1.95774 27.6393L11.4878 25.4723L7.63932 16.4886L17.3726 17.3726L16.4886 7.63932L25.4723 11.4878L27.6393 1.95774L34.9941 8.39397L40 0Z" fill="#EB4E24"/>
<path d="M35.7671 33.285C35.7671 35.205 33.7421 36 32.3171 36H27.0971V35.67C27.3671 35.655 28.0121 35.55 28.2071 35.475C28.5671 35.34 28.6721 35.085 28.6721 34.755V27.09C28.6721 26.76 28.5671 26.49 28.2071 26.34C27.8921 26.205 27.4271 26.1 27.1571 26.085V25.755H32.2871C33.3971 25.755 35.2271 26.205 35.2271 27.81C35.2271 29.505 34.0571 30.015 32.6321 30.42V30.555C33.6971 30.675 35.7671 31.305 35.7671 33.285ZM33.4271 28.095C33.4271 26.61 32.4221 26.16 31.4921 26.16C31.2371 26.16 30.6221 26.175 30.2621 26.19V30.375H31.1921C32.8421 30.375 33.4271 29.355 33.4271 28.095ZM33.9221 32.985C33.9221 31.77 33.0821 30.78 31.5371 30.78C31.2671 30.78 30.5321 30.795 30.2621 30.81V34.665C30.3671 35.34 30.7871 35.58 31.6721 35.58C33.4571 35.58 33.9221 34.2 33.9221 32.985ZM43.042 34.365C42.517 35.43 41.512 36.18 40.252 36.18C37.987 36.18 36.937 34.53 36.937 32.55C36.937 30.75 38.092 29.025 40.087 29.025C42.142 29.025 42.892 30.375 42.892 31.905V32.04H38.422V32.205C38.422 34.14 39.052 35.52 40.657 35.52C41.827 35.52 42.202 35.1 42.772 34.185L43.042 34.365ZM41.437 31.68C41.437 30.6 41.212 29.37 40.072 29.37C39.127 29.37 38.467 30.3 38.422 31.71L41.437 31.68ZM48.8029 34.065C48.8029 35.4 47.6929 36.21 46.2829 36.21C45.5479 36.21 44.7529 35.865 44.4979 35.61L44.3479 36.075H43.8529L43.7779 33.75H44.0929C44.2579 34.485 45.1579 35.85 46.3579 35.85C47.4079 35.85 47.7679 35.295 47.7679 34.56C47.7679 33.78 47.1829 33.465 46.0129 33.12C45.0529 32.835 43.9729 32.28 43.9729 30.99C43.9729 29.88 44.8279 29.025 46.2229 29.025C46.8079 29.025 47.4079 29.16 47.7829 29.415L47.9029 29.01H48.3679L48.4729 31.08H48.1579C48.0079 30.225 47.2429 29.37 46.1779 29.37C45.2629 29.37 45.0079 29.895 45.0079 30.45C45.0079 31.305 45.5179 31.47 46.7629 31.875C47.9929 32.28 48.8029 32.835 48.8029 34.065ZM54.552 34.14C54.432 35.22 53.727 36.15 52.617 36.15C51.387 36.15 50.802 35.415 50.802 34.08V29.895H49.362V29.25H50.832V26.925H52.137V29.25H54.192V29.895H52.152V33.9C52.152 34.755 52.392 35.31 53.307 35.31C54.072 35.31 54.132 34.71 54.222 34.14H54.552ZM30.0592 51.075C30.0592 52.905 28.6042 54.195 26.6692 54.195C25.4542 54.195 24.6592 53.805 24.2092 53.445L23.6842 54.15H23.1742L23.0692 50.64H23.4142C24.0292 52.23 24.9892 53.745 26.8492 53.745C28.1842 53.745 28.7542 52.98 28.7542 51.855C28.7542 50.94 28.1842 50.25 27.2842 49.89C26.4292 49.545 25.9792 49.38 25.1392 49.005C23.9842 48.495 23.3692 47.67 23.3692 46.335C23.3692 44.745 24.6592 43.56 26.3692 43.56C27.1492 43.56 28.0042 43.905 28.5292 44.31L29.0392 43.605H29.5492L29.6242 47.01H29.2942C28.6942 45.315 28.0192 44.01 26.0092 44.01C25.5742 44.01 24.5842 44.37 24.5842 45.54C24.5842 46.455 25.0792 46.98 25.9042 47.43C26.6392 47.835 27.2692 47.97 27.9442 48.3C29.2342 48.885 30.0592 49.485 30.0592 51.075ZM37.1973 52.365C36.6723 53.43 35.6673 54.18 34.4073 54.18C32.1423 54.18 31.0923 52.53 31.0923 50.55C31.0923 48.75 32.2473 47.025 34.2423 47.025C36.2973 47.025 37.0473 48.375 37.0473 49.905V50.04H32.5773V50.205C32.5773 52.14 33.2073 53.52 34.8123 53.52C35.9823 53.52 36.3573 53.1 36.9273 52.185L37.1973 52.365ZM35.5923 49.68C35.5923 48.6 35.3673 47.37 34.2273 47.37C33.2823 47.37 32.6223 48.3 32.5773 49.71L35.5923 49.68ZM41.3081 54H37.8131V53.7C38.0831 53.685 38.2631 53.655 38.4731 53.595C38.7581 53.505 38.8781 53.25 38.8781 52.92V44.415C38.8481 44.07 38.7131 43.725 38.4731 43.56C38.2931 43.44 37.6931 43.275 37.4231 43.26V42.975L40.1381 42.81L40.2431 42.915V52.83C40.2431 53.16 40.3781 53.4 40.6481 53.52C40.8731 53.625 41.0381 53.685 41.3081 53.7V54ZM45.4976 54H42.0026V53.7C42.2726 53.685 42.4526 53.655 42.6626 53.595C42.9476 53.505 43.0676 53.25 43.0676 52.92V44.415C43.0376 44.07 42.9026 43.725 42.6626 43.56C42.4826 43.44 41.8826 43.275 41.6126 43.26V42.975L44.3276 42.81L44.4326 42.915V52.83C44.4326 53.16 44.5676 53.4 44.8376 53.52C45.0626 53.625 45.2276 53.685 45.4976 53.7V54ZM52.417 52.365C51.892 53.43 50.887 54.18 49.627 54.18C47.362 54.18 46.312 52.53 46.312 50.55C46.312 48.75 47.467 47.025 49.462 47.025C51.517 47.025 52.267 48.375 52.267 49.905V50.04H47.797V50.205C47.797 52.14 48.427 53.52 50.032 53.52C51.202 53.52 51.577 53.1 52.147 52.185L52.417 52.365ZM50.812 49.68C50.812 48.6 50.587 47.37 49.447 47.37C48.502 47.37 47.842 48.3 47.797 49.71L50.812 49.68ZM58.5829 47.97C58.5829 48.495 58.2979 48.915 57.7879 48.915C57.3079 48.915 56.9779 48.705 56.9779 48.195C56.9779 48.045 57.0829 47.925 57.0829 47.73C56.3179 47.73 55.7629 48.375 55.5829 48.705V52.845C55.5829 53.175 55.7179 53.415 55.9879 53.52C56.2429 53.625 56.6779 53.685 56.9629 53.7V54H53.1529V53.7C53.4229 53.685 53.6029 53.655 53.8129 53.595C54.0979 53.505 54.2179 53.25 54.2179 52.92V48.615C54.1879 48.3 54.0529 47.985 53.8129 47.82C53.6329 47.7 53.3479 47.595 53.0779 47.58V47.295L55.4779 47.13L55.5829 47.235V48.255H55.6129C56.2579 47.43 57.0079 47.055 57.6379 47.055C58.1029 47.055 58.5829 47.475 58.5829 47.97Z" fill="white"/>
</svg>
