<svg width="22" height="16" viewBox="0 0 22 16" fill="none" xmlns="http://www.w3.org/2000/svg">
<path d="M0 0.0800781V0.520078V15.9201H22V0.0800781H0ZM0.88 0.960078H21.12V2.06266C20.9333 2.22537 13.1181 9.03671 12.4678 9.60281C11.8971 10.0997 11.3156 10.2009 11 10.2009C10.6847 10.2009 10.103 10.0998 9.53219 9.60281C8.88193 9.03671 1.06669 2.22537 0.88 2.06266V0.960078ZM0.88 3.22625C1.95271 4.16132 8.34577 9.73453 8.95555 10.2654C9.70384 10.9168 10.496 11.0792 11 11.0792C11.5037 11.0792 12.2961 10.9169 13.0445 10.2654C13.6542 9.73453 20.0472 4.16211 21.12 3.22711V15.0401H0.88V3.22625Z" fill="#EB4E24"/>
</svg>
