<svg width="80" height="80" viewBox="0 0 80 80" fill="none" xmlns="http://www.w3.org/2000/svg">
<path d="M40 0L45.0059 8.39397L52.3607 1.95774L54.5277 11.4878L63.5114 7.63932L62.6274 17.3726L72.3607 16.4886L68.5122 25.4723L78.0423 27.6393L71.606 34.9941L80 40L71.606 45.0059L78.0423 52.3607L68.5122 54.5277L72.3607 63.5114L62.6274 62.6274L63.5114 72.3607L54.5277 68.5122L52.3607 78.0423L45.0059 71.606L40 80L34.9941 71.606L27.6393 78.0423L25.4723 68.5122L16.4886 72.3607L17.3726 62.6274L7.63932 63.5114L11.4878 54.5277L1.95774 52.3607L8.39397 45.0059L0 40L8.39397 34.9941L1.95774 27.6393L11.4878 25.4723L7.63932 16.4886L17.3726 17.3726L16.4886 7.63932L25.4723 11.4878L27.6393 1.95774L34.9941 8.39397L40 0Z" fill="#EB4E24"/>
<path d="M37.5701 26.085C37.3001 26.1 36.4301 26.31 36.1901 26.46C35.7851 26.715 35.6951 27.48 35.6951 28.47V36.105H35.1401L28.4201 27.645V33.135C28.4201 34.275 28.6001 34.92 28.9301 35.19C29.1851 35.4 30.2051 35.655 30.4751 35.67V36H25.9751V35.67C26.2451 35.655 27.2051 35.385 27.3701 35.265C27.7301 35.01 27.8651 34.38 27.8651 33.21V27.93C27.8651 27.495 27.6851 26.985 27.3851 26.745C27.0251 26.46 26.1851 26.1 25.7801 26.085V25.755H28.8701L35.1401 33.645V28.56C35.1401 27.48 34.9601 26.745 34.6301 26.535C34.3451 26.355 33.4451 26.1 33.1001 26.085V25.755H37.5701V26.085ZM43.9356 34.365C43.4106 35.43 42.4056 36.18 41.1456 36.18C38.8806 36.18 37.8306 34.53 37.8306 32.55C37.8306 30.75 38.9856 29.025 40.9806 29.025C43.0356 29.025 43.7856 30.375 43.7856 31.905V32.04H39.3156V32.205C39.3156 34.14 39.9456 35.52 41.5506 35.52C42.7206 35.52 43.0956 35.1 43.6656 34.185L43.9356 34.365ZM42.3306 31.68C42.3306 30.6 42.1056 29.37 40.9656 29.37C40.0206 29.37 39.3606 30.3 39.3156 31.71L42.3306 31.68ZM55.6493 29.52C55.2293 29.565 54.5993 29.91 54.4043 30.42C53.7443 32.07 53.4593 32.805 52.7843 34.515C52.5743 35.04 52.4243 35.445 52.2143 36.105H51.7943C51.1343 34.29 50.5343 32.715 49.9493 31.245C49.5143 32.22 49.0943 33.42 48.6593 34.515C48.4493 35.025 48.2843 35.445 48.0743 36.105H47.6243C46.5593 33.42 46.1243 32.34 45.2543 30.285C45.0893 29.88 44.5793 29.58 44.1593 29.535V29.22H47.3993V29.565C47.0543 29.58 46.6043 29.64 46.6043 29.88C46.6043 29.895 46.6343 30.015 46.7093 30.195C47.0093 30.96 47.6993 32.685 48.3293 34.275H48.3743C48.8393 33.075 49.3043 31.95 49.7393 30.75C49.7093 30.66 49.5893 30.435 49.4693 30.18C49.2743 29.745 48.8993 29.58 48.4793 29.535V29.22H51.5843V29.55C51.2393 29.565 50.8043 29.595 50.8043 29.85C50.8043 29.865 50.8343 30.015 50.9093 30.195C51.1943 30.96 51.8993 32.805 52.4693 34.29H52.5143C53.1143 32.73 53.5193 31.65 53.9393 30.42C53.9843 30.285 54.0143 30.12 54.0143 30.03C54.0143 29.67 53.1743 29.52 52.9493 29.52V29.22H55.6493V29.52ZM28.747 54H24.022V53.67C24.547 53.64 25.537 53.46 25.537 53.085C25.537 52.98 25.522 52.86 25.477 52.74L24.547 50.37H20.857C20.572 51.06 20.392 51.57 20.257 52.02C20.152 52.35 20.092 52.65 20.092 52.86C20.092 53.4 21.262 53.64 21.787 53.67V54H17.662V53.67C17.947 53.655 18.442 53.535 18.712 53.385C19.072 53.175 19.342 52.74 19.567 52.215C20.632 49.635 21.877 46.455 23.017 43.59H23.587C25.117 47.46 26.587 51.27 27.142 52.665C27.262 52.965 27.397 53.19 27.757 53.4C28.027 53.55 28.462 53.655 28.747 53.67V54ZM24.352 49.875L22.687 45.69L21.052 49.875H24.352ZM34.2884 47.97C34.2884 48.495 34.0034 48.915 33.4934 48.915C33.0134 48.915 32.6834 48.705 32.6834 48.195C32.6834 48.045 32.7884 47.925 32.7884 47.73C32.0234 47.73 31.4684 48.375 31.2884 48.705V52.845C31.2884 53.175 31.4234 53.415 31.6934 53.52C31.9484 53.625 32.3834 53.685 32.6684 53.7V54H28.8584V53.7C29.1284 53.685 29.3084 53.655 29.5184 53.595C29.8034 53.505 29.9234 53.25 29.9234 52.92V48.615C29.8934 48.3 29.7584 47.985 29.5184 47.82C29.3384 47.7 29.0534 47.595 28.7834 47.58V47.295L31.1834 47.13L31.2884 47.235V48.255H31.3184C31.9634 47.43 32.7134 47.055 33.3434 47.055C33.8084 47.055 34.2884 47.475 34.2884 47.97ZM40.2064 47.97C40.2064 48.495 39.9214 48.915 39.4114 48.915C38.9314 48.915 38.6014 48.705 38.6014 48.195C38.6014 48.045 38.7064 47.925 38.7064 47.73C37.9414 47.73 37.3864 48.375 37.2064 48.705V52.845C37.2064 53.175 37.3414 53.415 37.6114 53.52C37.8664 53.625 38.3014 53.685 38.5864 53.7V54H34.7764V53.7C35.0464 53.685 35.2264 53.655 35.4364 53.595C35.7214 53.505 35.8414 53.25 35.8414 52.92V48.615C35.8114 48.3 35.6764 47.985 35.4364 47.82C35.2564 47.7 34.9714 47.595 34.7014 47.58V47.295L37.1014 47.13L37.2064 47.235V48.255H37.2364C37.8814 47.43 38.6314 47.055 39.2614 47.055C39.7264 47.055 40.2064 47.475 40.2064 47.97ZM43.2744 44.13C43.2744 44.655 42.8694 45.105 42.3294 45.105C41.8344 45.105 41.4144 44.685 41.4144 44.19C41.4144 43.68 41.8344 43.245 42.3294 43.245C42.8844 43.245 43.2744 43.65 43.2744 44.13ZM44.2044 54H40.7094V53.7C40.9794 53.685 41.1594 53.655 41.3694 53.595C41.6544 53.505 41.7744 53.22 41.7744 52.92V48.615C41.7444 48.3 41.6094 48.03 41.3694 47.865C41.1894 47.745 40.7544 47.595 40.4844 47.58V47.295L43.0344 47.13L43.1394 47.235V52.83C43.1394 53.145 43.2744 53.4 43.5444 53.52C43.7844 53.625 44.0094 53.685 44.2044 53.7V54ZM51.8113 47.505C51.5263 47.55 50.8663 47.91 50.6713 48.345C50.0563 49.71 49.5763 50.91 48.9163 52.485C48.6913 52.995 48.5263 53.445 48.3313 54.105H47.8063C46.7563 51.45 46.4263 50.7 45.4213 48.27C45.2413 47.85 44.7463 47.595 44.3113 47.535V47.22H47.6413V47.565C47.2963 47.58 46.7863 47.64 46.7863 47.88C46.7863 47.895 46.8163 48.015 46.8913 48.195C47.1763 48.96 47.9263 50.79 48.5413 52.35H48.5863C49.1563 50.985 49.6063 49.965 50.1763 48.48C50.2213 48.375 50.2513 48.18 50.2513 48.06C50.2363 47.76 49.3813 47.55 49.1413 47.52V47.22H51.8113V47.505ZM58.9051 52.215C58.8151 53.61 58.2451 54.15 57.3151 54.15C56.6101 54.15 56.2351 53.835 55.9951 53.145H55.9501C55.4101 53.775 54.6301 54.18 53.7301 54.18C52.6951 54.18 51.9901 53.55 51.9901 52.59C51.9901 51.36 52.7101 50.94 53.4601 50.655C54.3151 50.325 55.3501 50.07 55.9801 49.71V48.87C55.9801 48.6 55.9351 47.355 54.6901 47.355C54.1201 47.355 53.9101 47.7 53.7751 47.865C53.7751 48.09 53.9101 48.42 53.9101 48.75C53.9101 49.065 53.5801 49.395 53.0401 49.395C52.5451 49.395 52.3651 49.005 52.3651 48.615C52.3651 47.715 53.6401 47.025 54.7801 47.025C56.2651 47.025 57.3601 47.25 57.3601 49.245C57.3601 50.565 57.2851 52.11 57.2851 52.605C57.2851 52.83 57.4951 53.37 57.9901 53.37C58.4851 53.37 58.5301 52.785 58.5751 52.215H58.9051ZM55.9951 50.145C54.4951 50.61 53.4451 51.03 53.4451 52.365C53.4451 53.19 53.8201 53.565 54.4651 53.565C55.2451 53.565 55.5751 53.22 55.9351 52.77L55.9951 50.145ZM62.6436 54H59.1486V53.7C59.4186 53.685 59.5986 53.655 59.8086 53.595C60.0936 53.505 60.2136 53.25 60.2136 52.92V44.415C60.1836 44.07 60.0486 43.725 59.8086 43.56C59.6286 43.44 59.0286 43.275 58.7586 43.26V42.975L61.4736 42.81L61.5786 42.915V52.83C61.5786 53.16 61.7136 53.4 61.9836 53.52C62.2086 53.625 62.3736 53.685 62.6436 53.7V54Z" fill="white"/>
</svg>
