<svg width="24" height="24" viewBox="0 0 24 24" fill="none" xmlns="http://www.w3.org/2000/svg">
<path d="M5.68314 1.43435C5.31377 1.40435 4.90314 1.51122 4.52439 1.77747C4.19064 2.00997 3.47064 2.58185 2.79752 3.22872C2.46189 3.55122 2.14127 3.88685 1.89377 4.21685C1.64439 4.54685 1.42689 4.84872 1.44002 5.28747C1.45314 5.68122 1.49252 6.8456 2.33064 8.6306C3.16877 10.4137 4.79439 12.8606 7.96502 16.0331C11.1375 19.2056 13.5844 20.8312 15.3675 21.6693C17.1506 22.5075 18.3169 22.5468 18.7106 22.56C19.1475 22.5731 19.4494 22.3556 19.7794 22.1062C20.1094 21.8568 20.445 21.5381 20.7675 21.2025C21.4125 20.5293 21.9844 19.8093 22.2169 19.4756C22.7475 18.72 22.6594 17.8275 22.0688 17.4131C21.6975 17.1525 18.2831 14.88 17.7694 14.565C17.2481 14.2462 16.6481 14.3906 16.1119 14.6737C15.69 14.8968 14.5481 15.5512 14.2219 15.7387C13.9763 15.5831 13.0444 14.9625 11.04 12.9581C9.03377 10.9537 8.41502 10.0218 8.25939 9.77622C8.44689 9.44997 9.09939 8.31372 9.32439 7.88435C9.60564 7.34997 9.76314 6.74435 9.42752 6.21935C9.28689 5.99622 8.64752 5.0231 8.00252 4.04622C7.35564 3.06935 6.74252 2.1431 6.58314 1.92185V1.91997C6.37502 1.6331 6.05064 1.46435 5.68314 1.43435ZM5.59502 2.41497C5.72627 2.43185 5.80502 2.48435 5.80502 2.48435C5.88189 2.59122 6.55502 3.59997 7.20002 4.57497C7.84502 5.55185 8.50314 6.5531 8.61752 6.73497C8.63627 6.7631 8.66252 7.08185 8.47502 7.43622V7.4381C8.26314 7.84122 7.27502 9.5681 7.27502 9.5681L7.13814 9.80997L7.27877 10.05C7.27877 10.05 8.01564 11.2931 10.3594 13.6368C12.705 15.9806 13.9481 16.7193 13.9481 16.7193L14.1881 16.86L14.43 16.7231C14.43 16.7231 16.1531 15.7368 16.56 15.5231C16.9144 15.3375 17.2331 15.3618 17.2706 15.3843C17.6025 15.5887 21.2906 18.0393 21.5175 18.1987C21.525 18.2043 21.7256 18.5081 21.4331 18.9243H21.4313C21.255 19.1775 20.6775 19.9106 20.0756 20.5368C19.7738 20.85 19.4644 21.1425 19.2019 21.3393C18.9394 21.5362 18.705 21.5981 18.7425 21.6C18.3338 21.5868 17.4319 21.5775 15.7763 20.7993C14.1206 20.0231 11.7581 18.4687 8.64377 15.3525C5.53127 12.24 3.97689 9.87747 3.19877 8.21997C2.42252 6.56435 2.41314 5.66247 2.40002 5.2556C2.40189 5.2931 2.46377 5.05685 2.66064 4.79435C2.85752 4.53185 3.14814 4.2206 3.46127 3.91872C4.08939 3.31685 4.82064 2.73935 5.07377 2.5631V2.56497C5.28189 2.41872 5.46377 2.39997 5.59502 2.41497Z" fill="#EB4E24"/>
</svg>
