<svg width="9" height="16" viewBox="0 0 9 16" fill="none" xmlns="http://www.w3.org/2000/svg">
<path d="M4.49985 0.666676C4.86785 0.666676 5.16651 0.965342 5.16651 1.33334V13.1137L7.37418 11.0167C7.50318 10.8943 7.66818 10.8333 7.83318 10.8333C8.00951 10.8333 8.18551 10.903 8.31685 11.0407C8.57051 11.3077 8.55951 11.7297 8.29251 11.9833L4.95918 15.15C4.70218 15.394 4.29818 15.394 4.04085 15.15L0.707512 11.9833C0.440512 11.7297 0.429846 11.3077 0.683179 11.0407C0.936846 10.7743 1.35885 10.7633 1.62585 11.0167L3.83318 13.1137V1.33334C3.83318 0.965342 4.13185 0.666676 4.49985 0.666676Z" fill="#301210"/>
</svg>
