<svg width="14" height="8" viewBox="0 0 14 8" fill="none" xmlns="http://www.w3.org/2000/svg">
<path d="M12.6836 0.493774C12.5681 0.496503 12.4583 0.544834 12.3783 0.628215L7.0001 6.00639L1.62193 0.628215C1.58115 0.586219 1.53235 0.552832 1.47844 0.530033C1.42452 0.507234 1.36658 0.495486 1.30804 0.495483C1.22097 0.495505 1.13589 0.521502 1.06368 0.57015C0.99147 0.618798 0.935416 0.687884 0.902689 0.768569C0.869963 0.849253 0.862053 0.937866 0.879971 1.02307C0.89789 1.10828 0.940821 1.1862 1.00327 1.24687L6.69077 6.93437C6.77282 7.01638 6.88409 7.06246 7.0001 7.06246C7.11611 7.06246 7.22738 7.01638 7.30943 6.93437L12.9969 1.24687C13.0605 1.1858 13.1042 1.10694 13.1223 1.02062C13.1403 0.934298 13.1318 0.844545 13.0979 0.763127C13.0641 0.681709 13.0064 0.612426 12.9324 0.564361C12.8585 0.516296 12.7718 0.491692 12.6836 0.493774Z" fill="#301210"/>
</svg>
