<svg width="21" height="21" viewBox="0 0 21 21" fill="none" xmlns="http://www.w3.org/2000/svg">
<path d="M10.5031 2.18702C10.3805 2.18626 10.2601 2.21988 10.1555 2.28407C10.051 2.34825 9.96659 2.44045 9.9118 2.55018L7.65765 7.05849L2.30511 7.88222C2.1853 7.90073 2.07296 7.95206 1.98055 8.03053C1.88814 8.10899 1.81926 8.21152 1.78156 8.32674C1.74386 8.44196 1.73882 8.56537 1.76698 8.68329C1.79514 8.8012 1.85541 8.90901 1.9411 8.99476L5.64361 12.6973L4.81903 18.0558C4.80058 18.1757 4.81572 18.2983 4.86276 18.4101C4.9098 18.5219 4.9869 18.6185 5.08551 18.6892C5.18412 18.7598 5.30037 18.8017 5.42136 18.8103C5.54236 18.8189 5.66336 18.7937 5.77093 18.7377L10.4988 16.2708L15.2267 18.7377C15.3343 18.7937 15.4553 18.8189 15.5763 18.8103C15.6973 18.8017 15.8136 18.7598 15.9122 18.6892C16.0108 18.6185 16.0879 18.5219 16.1349 18.4101C16.182 18.2983 16.1971 18.1757 16.1786 18.0558L15.3541 12.6973L19.0566 8.99476C19.1423 8.90901 19.2025 8.8012 19.2307 8.68329C19.2589 8.56537 19.2538 8.44196 19.2161 8.32674C19.1784 8.21152 19.1095 8.10899 19.0171 8.03053C18.9247 7.95206 18.8124 7.90073 18.6926 7.88222L13.34 7.05849L11.0859 2.55018C11.0317 2.44174 10.9486 2.35041 10.8458 2.28631C10.7429 2.22221 10.6243 2.18785 10.5031 2.18702Z" fill="#EB4E24"/>
</svg>
